<?xml version="1.0" encoding="UTF-8"?>
<!DOCTYPE svg PUBLIC "-//W3C//DTD SVG 1.1//EN" "http://www.w3.org/Graphics/SVG/1.1/DTD/svg11.dtd">
<!-- Creator: CorelDRAW -->
<svg xmlns="http://www.w3.org/2000/svg" xml:space="preserve" width="80mm" height="55mm" version="1.1" style="shape-rendering:geometricPrecision; text-rendering:geometricPrecision; image-rendering:optimizeQuality; fill-rule:evenodd; clip-rule:evenodd"
viewBox="0 0 8000 5500"
 xmlns:xlink="http://www.w3.org/1999/xlink"
 xmlns:xodm="http://www.corel.com/coreldraw/odm/2003">
 <defs>
  <style type="text/css">
   <![CDATA[
    .fil0 {fill:none}
    .fil1 {fill:#BCA363}
    .fil2 {fill:#BCA363;fill-rule:nonzero}
   ]]>
  </style>
 </defs>
 <g id="Camada_x0020_1">
  <metadata id="CorelCorpID_0Corel-Layer"/>
  <rect class="fil0" x="-4.73" y="4.73" width="8000" height="5500"/>
  <g id="_3183522411552">
   <path class="fil1" d="M4734.61 1274.36l-223.96 835.81 -515.27 0 -515.27 0 -223.96 -835.81c37.93,8.31 75.18,18.45 111.65,30.3 102.69,33.37 203.01,83.54 294.38,143.53 99.29,-181.97 209.64,-357.05 330.21,-524.26 120.99,167.79 231.69,343.5 331.24,526.14 92.34,-60.82 194.13,-111.22 299.33,-145.41 36.47,-11.85 73.72,-21.99 111.65,-30.3zm-983.72 237.27c101.56,78.96 187.05,168.7 245.08,257.2 58.74,-90.39 141.44,-178.24 239.09,-254.97 -74.38,-141.35 -155.41,-278.66 -242.67,-411.51 -86.8,132.16 -167.43,268.72 -241.5,409.28zm-351.62 -89.52l157.57 588.06 438.54 0 438.54 0 157.57 -588.06c-237.53,93.7 -547.65,419.12 -596.19,512.44 -53.74,-93.08 -321.7,-404.22 -596.03,-512.44z"/>
   <path class="fil2" d="M1002.54 3372.1c-7.77,46.59 -10.36,88.01 -10.36,119.08 0,22 10.36,36.24 40.13,53.06 36.24,20.71 100.95,40.13 194.14,40.13 199.33,0 301.58,-107.43 301.58,-249.81 0,-91.89 -40.12,-168.26 -195.44,-242.04l-60.83 -29.76c-143.67,-69.9 -163.09,-116.49 -163.09,-178.62 0,-81.54 55.66,-150.14 183.79,-150.14 58.25,0 99.67,11.65 129.44,37.53 22,19.42 40.12,46.6 55.65,100.96l7.77 0c9.06,-40.12 20.71,-98.37 20.71,-121.67 0,-24.59 -9.06,-32.35 -42.72,-44 -41.41,-14.24 -93.19,-19.42 -154.02,-19.42 -218.74,0 -304.16,117.79 -304.16,236.86 0,81.55 31.06,165.68 165.67,232.98l63.42 31.06c159.2,78.96 187.68,120.38 187.68,199.33 0,68.6 -49.19,150.14 -183.8,150.14 -64.71,0 -122.96,-22 -157.9,-51.77 -34.95,-31.07 -58.25,-71.19 -69.9,-113.9l-7.76 0zm679.77 195.44l548.79 0c31.07,0 37.54,-6.47 41.42,-32.36 6.47,-42.71 7.77,-119.08 9.06,-150.14l-7.76 0c-24.6,59.54 -44.01,89.31 -63.43,106.14 -20.7,18.12 -59.53,27.18 -112.6,27.18l-142.38 0c-54.36,0 -62.12,-19.42 -62.12,-63.43l0 -313.22 102.25 0c33.65,0 66.01,0 90.6,3.88 53.07,9.06 71.19,31.07 82.84,82.84l7.76 0 0 -225.21 -7.76 0c-15.54,53.06 -28.48,73.77 -73.78,82.83 -23.3,5.18 -60.83,7.77 -100.96,7.77l-100.95 0 0 -301.58c0,-28.47 6.47,-40.12 37.53,-40.12l130.73 0c31.06,0 62.13,1.29 84.13,7.76 29.77,7.77 53.07,29.77 75.07,106.14l7.76 0c5.18,-49.19 11.65,-111.31 11.65,-133.32 0,-23.29 -6.47,-28.47 -29.77,-28.47l-528.08 0 0 6.47c36.24,10.35 58.25,20.71 71.19,34.95 14.24,15.53 16.83,42.71 16.83,100.95l0 573.39c0,49.18 -1.3,90.6 -19.42,107.43 -19.41,16.82 -40.12,24.59 -68.6,33.65l0 6.47zm1039.6 0l0 -6.47c-40.12,-11.65 -64.71,-25.89 -75.07,-37.54 -12.94,-16.82 -16.82,-36.24 -16.82,-120.37l0 -217.44 78.95 0c41.42,0 63.42,7.76 84.13,38.83 20.71,33.65 46.6,80.24 111.31,200.61 45.3,84.14 68.6,104.84 89.31,122.97 25.89,22 64.72,24.59 104.84,24.59 23.3,0 68.6,-2.59 104.84,-7.77l0 -6.47c-55.66,-7.77 -94.49,-46.6 -137.2,-113.9 -112.6,-177.32 -151.43,-258.86 -200.62,-283.46 107.43,-33.65 178.62,-110.01 178.62,-226.5 0,-112.61 -55.66,-187.68 -157.91,-212.27 -40.12,-10.36 -115.19,-18.12 -185.09,-18.12l-282.16 0 0 6.47c41.42,10.35 62.13,20.71 73.78,37.54 9.06,14.23 14.24,42.71 14.24,117.78l0 534.55c0,77.66 -6.48,107.43 -14.24,120.37 -11.65,16.83 -36.24,29.77 -73.78,40.13l0 6.47 302.87 0zm-91.89 -428.42l0 -341.7c0,-36.24 7.76,-46.6 41.41,-46.6l34.95 0c64.72,0 103.55,11.65 132.02,27.18 47.89,27.19 69.89,85.43 69.89,163.09 0,81.54 -25.88,143.67 -86.71,176.03 -22.01,11.65 -69.9,22 -124.26,22l-67.3 0zm675.89 428.42l548.79 0c31.07,0 37.54,-6.47 41.42,-32.36 6.47,-42.71 7.77,-119.08 9.06,-150.14l-7.76 0c-24.6,59.54 -44.01,89.31 -63.43,106.14 -20.7,18.12 -59.53,27.18 -112.6,27.18l-142.38 0c-54.36,0 -62.12,-19.42 -62.12,-63.43l0 -313.22 102.25 0c33.65,0 66.01,0 90.6,3.88 53.07,9.06 71.19,31.07 82.84,82.84l7.76 0 0 -225.21 -7.76 0c-15.54,53.06 -28.48,73.77 -73.78,82.83 -23.3,5.18 -60.83,7.77 -100.96,7.77l-100.95 0 0 -301.58c0,-28.47 6.47,-40.12 37.53,-40.12l130.73 0c31.06,0 62.13,1.29 84.13,7.76 29.77,7.77 53.07,29.77 75.07,106.14l7.76 0c5.18,-49.19 11.65,-111.31 11.65,-133.32 0,-23.29 -6.47,-28.47 -29.77,-28.47l-528.08 0 0 6.47c36.24,10.35 58.25,20.71 71.19,34.95 14.24,15.53 16.83,42.71 16.83,100.95l0 573.39c0,49.18 -1.3,90.6 -19.42,107.43 -19.41,16.82 -40.12,24.59 -68.6,33.65l0 6.47zm981.36 0l0 -6.47c-47.89,-14.24 -68.6,-28.48 -78.96,-44.01 -9.06,-12.94 -16.82,-46.59 -16.82,-124.25 0,-332.64 -3.88,-441.37 -6.47,-581.15 51.77,80.24 116.49,176.02 520.31,764.94l67.31 0 0 -698.93c0,-72.48 6.47,-110.02 15.53,-124.26 10.35,-16.82 29.77,-29.77 72.48,-42.71l0 -6.47 -238.15 0 0 6.47c47.89,12.94 64.71,27.18 75.07,45.3 9.06,12.94 14.24,47.89 15.53,116.49 2.59,276.98 3.88,370.18 6.47,500.9 -51.77,-84.13 -139.79,-212.27 -442.66,-645.86 -12.94,-18.12 -20.71,-23.3 -41.41,-23.3l-192.86 0 0 6.47c46.6,12.94 66.01,27.18 76.37,44.01 7.76,12.94 14.23,40.12 14.23,144.96 0,165.67 -2.58,311.93 -2.58,494.43 0,76.37 -7.77,112.61 -15.54,124.26 -11.65,16.82 -28.47,29.77 -75.07,42.71l0 6.47 247.22 0zm1030.53 0l0 -6.47c-40.12,-10.36 -63.42,-24.59 -72.48,-38.83 -10.35,-16.83 -16.82,-42.71 -16.82,-120.37l0 -535.85c0,-75.07 5.17,-103.55 16.82,-120.37 7.77,-11.65 25.89,-23.3 72.48,-34.95l0 -6.47 -300.28 0 0 6.47c40.13,10.35 63.42,23.3 73.78,38.83 9.06,14.24 14.24,44.01 14.24,117.78l0 533.26c0,76.37 -6.48,107.43 -14.24,120.37 -10.36,16.83 -32.36,29.77 -73.78,40.13l0 6.47 300.28 0zm622.83 0l0 -6.47c-40.12,-10.36 -64.71,-24.59 -73.77,-38.83 -11.65,-16.83 -16.83,-42.71 -16.83,-121.67l0 -609.62c0,-28.48 6.47,-38.83 37.54,-38.83l62.12 0c38.83,0 69.9,2.59 93.19,7.76 36.25,9.06 60.84,32.36 88.02,121.67l6.47 0c5.18,-66.01 6.47,-121.67 6.47,-148.85 0,-23.29 -2.59,-28.47 -28.47,-28.47l-654.93 0c-24.59,0 -27.18,7.76 -27.18,29.77 0,27.18 2.59,93.19 6.47,147.55l6.47 0c29.77,-84.13 53.07,-112.61 86.72,-121.67 23.3,-6.47 54.36,-7.76 91.9,-7.76l66.01 0c28.47,0 34.95,10.35 34.95,38.83l0 609.62c0,76.37 -6.48,107.43 -14.24,120.37 -10.36,16.83 -32.36,29.77 -73.78,40.13l0 6.47 302.87 0zm807.92 0l0 -6.47c-40.13,-11.65 -62.13,-24.59 -71.19,-38.83 -11.65,-15.53 -16.83,-38.83 -16.83,-116.49l0 -221.33 227.8 -368.88c20.71,-32.36 36.25,-53.07 49.19,-67.3 20.71,-23.3 42.71,-32.36 60.83,-37.54l0 -6.47 -230.39 0 0 6.47c14.24,3.88 31.07,9.06 45.3,18.12 16.83,9.06 23.3,19.42 23.3,31.06 0,12.95 -6.47,38.83 -25.89,71.19 -107.42,186.38 -143.66,247.22 -172.14,298.99 -32.36,-55.66 -67.3,-119.08 -182.5,-310.64 -15.53,-25.88 -25.89,-50.48 -25.89,-64.71 0,-10.36 6.48,-16.83 19.42,-24.6 11.65,-6.47 33.65,-14.23 56.95,-19.41l0 -6.47 -306.75 0 0 6.47c20.71,5.18 32.35,12.94 44,22 15.53,14.24 36.24,41.42 62.13,82.84l230.39 380.53 0 208.39c0,77.65 -7.77,103.54 -15.53,116.48 -10.36,16.83 -32.36,29.77 -72.48,40.13l0 6.47 300.28 0z"/>
   <path class="fil2" d="M1554.81 4578.81c81.56,0 142.14,-38.98 171.52,-81.56l-52.77 -40.79c-22.79,28.19 -55.78,54.58 -115.75,54.58 -79.16,0 -145.13,-56.97 -145.13,-146.93 0,-90.56 65.97,-149.33 145.13,-149.33 54.57,0 90.56,24.59 115.75,54.57l54.57 -43.18c-35.98,-45.58 -97.15,-78.56 -173.32,-78.56 -121.74,0 -224.29,85.16 -224.29,216.5 0,132.54 100.75,214.7 224.29,214.7zm361.04 -73.17l0 -352.63 -82.16 0 0 419.8 292.66 0 0 -67.17 -210.5 0zm462.98 73.77c97.16,0 181.12,-58.18 181.12,-166.13l-0.6 -260.27 -82.16 0 0.6 260.27c0,53.98 -32.99,98.36 -99.56,98.36 -64.77,0 -98.95,-44.38 -98.95,-98.36l0.6 -260.27 -82.16 0 -0.6 260.27c0,107.95 84.56,166.13 181.71,166.13zm310.06 -426.4l0 419.8 227.29 0c101.95,0 152.93,-52.18 152.93,-122.94 0,-51.58 -29.99,-85.76 -72.57,-97.76 36.59,-17.39 56.98,-50.97 56.98,-90.55 0,-56.98 -43.78,-108.55 -149.93,-108.55l-214.7 0zm223.69 236.89c47.38,0 74.37,17.39 74.37,55.77 0,36.58 -26.39,59.97 -74.97,59.97l-140.93 0 0 -115.74 141.53 0zm-12.59 -169.73c49.77,0 71.96,20.99 71.96,51.58 0,30.59 -17.39,55.17 -71.96,55.17l-128.94 0 0 -106.75 128.94 0zm451 352.64l82.16 0 0 -289.07 142.13 220.7 142.74 -220.7 0 289.07 82.16 0 0 -419.8 -85.16 0 -139.74 214.1 -139.13 -214.1 -85.16 0 0 419.8zm540.35 0l86.36 0 39.58 -86.36 220.09 0 39.59 86.36 86.36 0 -193.11 -419.8 -85.76 0 -193.11 419.8zm235.69 -327.45l80.36 173.92 -160.13 0 79.77 -173.92zm302.26 275.27c16.19,12 75.56,58.18 189.51,58.18 107.95,0 174.52,-55.18 174.52,-130.14 0,-156.53 -281.27,-103.15 -281.27,-187.11 0,-23.99 19.19,-46.78 86.96,-46.78 77.96,0 121.74,25.19 140.33,38.38l35.99 -56.97c-24.59,-16.8 -76.17,-48.58 -176.32,-48.58 -116.95,0 -169.12,53.37 -169.12,115.14 0.6,152.33 281.27,100.16 281.27,190.72 0,35.98 -34.19,58.17 -89.36,58.17 -88.16,0 -138.54,-38.38 -154.73,-50.38l-37.78 59.37zm445 0c16.19,12 75.56,58.18 189.51,58.18 107.95,0 174.52,-55.18 174.52,-130.14 0,-156.53 -281.27,-103.15 -281.27,-187.11 0,-23.99 19.19,-46.78 86.96,-46.78 77.96,0 121.74,25.19 140.33,38.38l35.99 -56.97c-24.59,-16.8 -76.17,-48.58 -176.32,-48.58 -116.95,0 -169.12,53.37 -169.12,115.14 0.6,152.33 281.27,100.16 281.27,190.72 0,35.98 -34.19,58.17 -89.36,58.17 -88.16,0 -138.54,-38.38 -154.73,-50.38l-37.78 59.37zm429.41 52.18l86.36 0 39.58 -86.36 220.09 0 39.59 86.36 86.36 0 -193.11 -419.8 -85.76 0 -193.11 419.8zm235.69 -327.45l80.36 173.92 -160.13 0 79.77 -173.92zm282.47 118.75c0,125.34 100.75,215.3 224.29,215.3 77.37,0 137.94,-35.99 168.52,-76.77l0 -161.92 -202.7 0 0 62.37 125.94 0 0 79.76c-22.19,17.39 -50.38,28.79 -88.76,28.79 -80.36,0 -145.13,-64.77 -145.13,-147.53 0,-82.76 64.17,-151.13 145.13,-150.53 54.57,0.6 91.16,23.39 118.15,52.77l49.77 -49.17c-38.98,-42.58 -94.75,-70.77 -170.92,-70.77 -121.74,0 -224.29,92.36 -224.29,217.7zm519.36 -211.1l0 419.8 319.05 0 0 -66.57 -236.89 0 0 -110.95 205.7 0 0 -64.77 -205.7 0 0 -110.95 236.89 0 0 -66.56 -319.05 0z"/>
  </g>
 </g>
</svg>
