<?xml version="1.0" encoding="UTF-8"?>
<!DOCTYPE svg PUBLIC "-//W3C//DTD SVG 1.1//EN" "http://www.w3.org/Graphics/SVG/1.1/DTD/svg11.dtd">
<!-- Creator: CorelDRAW -->
<svg xmlns="http://www.w3.org/2000/svg" xml:space="preserve" width="80mm" height="70mm" version="1.1" style="shape-rendering:geometricPrecision; text-rendering:geometricPrecision; image-rendering:optimizeQuality; fill-rule:evenodd; clip-rule:evenodd"
viewBox="0 0 8000 7000"
 xmlns:xlink="http://www.w3.org/1999/xlink"
 xmlns:xodm="http://www.corel.com/coreldraw/odm/2003">
 <defs>
  <style type="text/css">
   <![CDATA[
    .fil0 {fill:none}
    .fil1 {fill:#BCA363}
   ]]>
  </style>
 </defs>
 <g id="Camada_x0020_1">
  <metadata id="CorelCorpID_0Corel-Layer"/>
  <rect class="fil0" x="-4.73" y="4.73" width="8000" height="7000"/>
  <path class="fil1" d="M6491.07 2681.58l-757.41 2826.62 -1742.59 0 -1742.59 0 -757.41 -2826.62c128.28,28.1 254.25,62.39 377.59,102.47 347.29,112.85 686.56,282.52 995.56,485.4 335.79,-615.4 708.98,-1207.5 1116.74,-1772.99 409.17,567.45 783.55,1161.68 1120.22,1779.35 312.28,-205.69 656.53,-376.13 1012.3,-491.76 123.34,-40.08 249.31,-74.37 377.59,-102.47zm-3326.84 802.42c343.47,267.03 632.58,570.53 828.84,869.82 198.65,-305.69 478.33,-602.79 808.57,-862.28 -251.54,-478.03 -525.58,-942.4 -820.68,-1391.68 -293.55,446.95 -566.23,908.78 -816.73,1384.14zm-1189.14 -302.75l532.88 1988.76 1483.1 0 1483.1 0 532.88 -1988.76c-803.3,316.89 -1852.09,1417.42 -2016.25,1733.02 -181.74,-314.78 -1087.96,-1367.03 -2015.71,-1733.02z"/>
 </g>
</svg>
