<?xml version="1.0" encoding="UTF-8"?>
<!DOCTYPE svg PUBLIC "-//W3C//DTD SVG 1.1//EN" "http://www.w3.org/Graphics/SVG/1.1/DTD/svg11.dtd">
<!-- Creator: CorelDRAW -->
<svg xmlns="http://www.w3.org/2000/svg" xml:space="preserve" width="80mm" height="80mm" version="1.1" style="shape-rendering:geometricPrecision; text-rendering:geometricPrecision; image-rendering:optimizeQuality; fill-rule:evenodd; clip-rule:evenodd"
viewBox="0 0 8000 8000"
 xmlns:xlink="http://www.w3.org/1999/xlink"
 xmlns:xodm="http://www.corel.com/coreldraw/odm/2003">
 <defs>
  <style type="text/css">
   <![CDATA[
    .fil1 {fill:#BCA363}
    .fil0 {fill:white}
   ]]>
  </style>
 </defs>
 <g id="Camada_x0020_1">
  <metadata id="CorelCorpID_0Corel-Layer"/>
  <rect class="fil0" x="-0.53" y="7.13" width="8000" height="8000" rx="2000" ry="2000"/>
  <path class="fil1" d="M6995.27 3019.83l-908.89 3391.94 -2091.11 0 -2091.11 0 -908.89 -3391.94c153.93,33.72 305.1,74.87 453.11,122.96 416.74,135.43 823.87,339.03 1194.67,582.49 402.95,-738.49 850.78,-1449.01 1340.09,-2127.59 491.01,680.93 940.26,1394.01 1344.26,2135.22 374.74,-246.83 787.83,-451.36 1214.76,-590.12 148.01,-48.09 299.18,-89.24 453.11,-122.96zm-3992.21 962.9c412.16,320.45 759.1,684.64 994.6,1043.79 238.39,-366.83 574.01,-723.34 970.3,-1034.74 -301.86,-573.63 -630.7,-1130.87 -984.82,-1670.02 -352.26,536.35 -679.48,1090.54 -980.08,1660.97zm-1426.97 -363.29l639.46 2386.51 1779.72 0 1779.72 0 639.46 -2386.51c-963.96,380.26 -2222.52,1700.9 -2419.5,2079.62 -218.1,-377.74 -1305.55,-1640.44 -2418.86,-2079.62z"/>
 </g>
</svg>
